<svg width="33" height="20" viewBox="0 0 33 20" fill="none" xmlns="http://www.w3.org/2000/svg">
<path d="M2.59994 0.25H31.05C31.85 0.25 32.4986 0.898522 32.4986 1.69851V18.3015C32.4986 19.1015 31.85 19.75 31.05 19.75H2.59994C1.79995 19.75 1.15143 19.1015 1.15143 18.3015V1.69851C1.15143 0.898522 1.79995 0.25 2.59994 0.25Z" fill="white" stroke="#E5E5E5" stroke-width="0.5"/>
<path d="M12.7145 14.193L14.1311 5.88037H16.3969L14.9793 14.193H12.7145Z" fill="#0E4595"/>
<path d="M23.165 6.05909C22.7161 5.89068 22.0127 5.70996 21.1343 5.70996C18.8955 5.70996 17.3184 6.83739 17.305 8.45323C17.2924 9.64767 18.4309 10.314 19.2903 10.7116C20.1722 11.119 20.4687 11.3789 20.4645 11.7427C20.4589 12.2999 19.7602 12.5545 19.109 12.5545C18.2021 12.5545 17.7203 12.4285 16.9763 12.1182L16.6843 11.986L16.3663 13.8469C16.8955 14.0789 17.8741 14.28 18.8902 14.2904C21.2719 14.2904 22.818 13.1759 22.8356 11.4504C22.8441 10.5048 22.2405 9.78512 20.9333 9.19187C20.1413 8.80733 19.6563 8.55073 19.6615 8.16134C19.6615 7.81582 20.072 7.44635 20.959 7.44635C21.6999 7.43484 22.2366 7.59642 22.6548 7.76482L22.8579 7.86075L23.165 6.05909Z" fill="#0E4595"/>
<path d="M28.9954 5.88037H27.2447C26.7023 5.88037 26.2964 6.0284 26.0582 6.56971L22.6932 14.1877H25.0725C25.0725 14.1877 25.4615 13.1634 25.5495 12.9385C25.8095 12.9385 28.1208 12.9421 28.4512 12.9421C28.519 13.2331 28.7269 14.1877 28.7269 14.1877H30.8293L28.9954 5.88037ZM26.2177 11.248C26.405 10.769 27.1204 8.92428 27.1204 8.92428C27.107 8.9464 27.3064 8.443 27.4208 8.1309L27.574 8.84759C27.574 8.84759 28.0078 10.8318 28.0985 11.2479H26.2177V11.248Z" fill="#0E4595"/>
<path d="M2.84956 5.87988L2.82062 6.05289C3.7162 6.26968 4.51613 6.5834 5.21645 6.97372L7.22688 14.1793L9.62413 14.1765L13.1912 5.87988H10.7911L8.57284 11.5485L8.33647 10.3965C8.32554 10.3614 8.3137 10.3261 8.30156 10.2908L7.53018 6.58168C7.39302 6.05531 6.99521 5.89823 6.50311 5.87988H2.84956Z" fill="#0E4595"/>
</svg>
