<svg width="33" height="20" viewBox="0 0 33 20" fill="none" xmlns="http://www.w3.org/2000/svg">
<path d="M30.8972 0H2.44705C1.50899 0 0.748535 0.76045 0.748535 1.69851V18.3015C0.748535 19.2395 1.50899 20 2.44705 20H30.8972C31.8352 20 32.5957 19.2395 32.5957 18.3015V1.69851C32.5957 0.76045 31.8352 0 30.8972 0Z" fill="#2557D6"/>
<path d="M0.748649 9.39146H2.27834L2.62325 8.56301H3.39544L3.73945 9.39146H6.74923V8.75808L7.01789 9.39416H8.58034L8.84899 8.74863V9.39146H16.3289L16.3254 8.03156H16.4701C16.5714 8.03505 16.601 8.04438 16.601 8.21099V9.39146H20.4697V9.07488C20.7817 9.24138 21.267 9.39146 21.9057 9.39146H23.5332L23.8815 8.56301H24.6537L24.9943 9.39146H28.1306V8.60452L28.6056 9.39146H31.1188V4.18945H28.6316V4.80382L28.2833 4.18945H25.731V4.80382L25.4112 4.18945H21.9638C21.3867 4.18945 20.8794 4.26967 20.4697 4.4932V4.18945H18.0906V4.4932C17.8299 4.2628 17.4746 4.18945 17.0795 4.18945H8.38794L7.80476 5.53304L7.20588 4.18945H4.46825V4.80382L4.16751 4.18945H1.83276L0.748535 6.66277V9.39146H0.748649ZM10.4046 8.64111H9.48674L9.48335 5.71993L8.18515 8.64111H7.39907L6.09747 5.71734V8.64111H4.27654L3.93253 7.80917H2.06843L1.72092 8.64111H0.748537L2.35177 4.91128H3.68195L5.20463 8.44266V4.91128H6.66585L7.83752 7.44152L8.91384 4.91128H10.4044V8.64111H10.4046ZM3.62655 7.0351L3.01377 5.54819L2.40449 7.0351H3.62655ZM14.0572 8.64111H11.0664V4.91128H14.0572V5.68798H11.9617V6.36028H14.0069V7.12483H11.9617V7.8697H14.0572V8.64111ZM18.2719 5.91579C18.2719 6.51047 17.8733 6.81771 17.641 6.90996C17.8369 6.98421 18.0043 7.11538 18.0839 7.22406C18.2103 7.40957 18.2321 7.57528 18.2321 7.9084V8.64111H17.3291L17.3257 8.17075C17.3257 7.94631 17.3473 7.62355 17.1844 7.44411C17.0536 7.31293 16.8542 7.28447 16.5319 7.28447H15.5708V8.64111H14.6756V4.91128H16.7348C17.1923 4.91128 17.5294 4.92332 17.8189 5.08993C18.1021 5.25654 18.2719 5.49977 18.2719 5.91579ZM17.1402 6.46964C17.0171 6.544 16.8716 6.54648 16.6973 6.54648H15.6097V5.71803H16.7121C16.8681 5.71803 17.0309 5.725 17.1367 5.7853C17.2528 5.83964 17.3246 5.95529 17.3246 6.11504C17.3246 6.27805 17.2563 6.40923 17.1402 6.46964ZM19.7077 8.64111H18.7942V4.91128H19.7077V8.64111ZM30.3124 8.64111H29.0437L27.3467 5.84166V8.64111H25.5233L25.1749 7.80917H23.3151L22.9771 8.64111H21.9295C21.4943 8.64111 20.9433 8.54526 20.6313 8.22857C20.3166 7.91188 20.1529 7.48292 20.1529 6.80466C20.1529 6.25149 20.2508 5.74581 20.6356 5.34621C20.925 5.04853 21.3783 4.91128 21.9952 4.91128H22.862V5.71048H22.0134C21.6867 5.71048 21.5022 5.75886 21.3245 5.93143C21.1719 6.08848 21.0671 6.38537 21.0671 6.77631C21.0671 7.17591 21.1469 7.46402 21.3133 7.65223C21.4511 7.79983 21.7016 7.84461 21.9373 7.84461H22.3394L23.6012 4.91139H24.9427L26.4584 8.43928V4.91139H27.8216L29.3954 7.50902V4.91139H30.3124V8.64111ZM24.8704 7.0351L24.2509 5.54819L23.6347 7.0351H24.8704Z" fill="white"/>
<path d="M32.5938 14.5967C32.3763 14.9134 31.9526 15.074 31.3789 15.074H29.6499V14.274H31.3719C31.5427 14.274 31.6622 14.2516 31.7342 14.1816C31.7965 14.1239 31.84 14.0401 31.84 13.9383C31.84 13.8296 31.7965 13.7433 31.7307 13.6916C31.6657 13.6346 31.5712 13.6088 31.4153 13.6088C30.5746 13.5803 29.5259 13.6346 29.5259 12.4541C29.5259 11.9129 29.8709 11.3433 30.8104 11.3433H32.5937L32.5938 10.6011H30.9368C30.4368 10.6011 30.0736 10.7203 29.8163 10.9057V10.6011H27.3655C26.9736 10.6011 26.5136 10.6978 26.296 10.9057V10.6011H21.9196V10.9057C21.5712 10.6555 20.9835 10.6011 20.7123 10.6011H17.8255V10.9057C17.55 10.64 16.9372 10.6011 16.5637 10.6011H13.333L12.5936 11.3978L11.9012 10.6011H7.07513V15.8067H11.8104L12.5722 14.9974L13.2898 15.8067L16.2086 15.8093V14.5847H16.4956C16.8829 14.5907 17.3396 14.5751 17.7426 14.4017V15.8066H20.1501V14.4498H20.2663C20.4145 14.4498 20.4291 14.4559 20.4291 14.6034V15.8065H27.7426C28.207 15.8065 28.6923 15.6881 28.9611 15.4733V15.8065H31.2809C31.7637 15.8065 32.2351 15.7391 32.5938 15.5665V14.5967ZM18.0926 12.5944C18.0926 13.6308 17.3161 13.8448 16.5335 13.8448H15.4164V15.0961H13.6763L12.5739 13.8611L11.4282 15.0961H7.88188V11.3654H11.4828L12.5843 12.5882L13.7231 11.3654H16.5838C17.2943 11.3654 18.0926 11.5612 18.0926 12.5944ZM10.9748 14.3114H8.77355V13.5691H10.7391V12.8079H8.77355V12.1296H11.0181L11.9974 13.2169L10.9748 14.3114ZM14.5215 14.7385L13.147 13.2189L14.5215 11.7475V14.7385ZM16.5544 13.0797H15.3974V12.1296H16.5648C16.888 12.1296 17.1123 12.2608 17.1123 12.5871C17.1123 12.9097 16.8984 13.0797 16.5544 13.0797ZM22.6156 11.3654H25.6037V12.1369H23.5072V12.8151H25.5526V13.5763H23.5072V14.3186L25.6037 14.322V15.0961H22.6156V11.3654ZM21.4669 13.3623C21.6662 13.4356 21.8291 13.5669 21.9055 13.6756C22.0319 13.8577 22.0502 14.0277 22.0538 14.3565V15.0961H21.155V14.6293C21.155 14.4049 21.1767 14.0726 21.0102 13.8991C20.8794 13.7654 20.68 13.7335 20.3534 13.7335H19.3966V15.0961H18.497V11.3654H20.564C21.0172 11.3654 21.3474 11.3853 21.6412 11.5414C21.9238 11.7114 22.1015 11.9443 22.1015 12.3699C22.1013 12.9653 21.7026 13.2692 21.4669 13.3623ZM20.9608 12.8907C20.841 12.9615 20.6929 12.9675 20.5187 12.9675H19.4311V12.1296H20.5335C20.6929 12.1296 20.8525 12.133 20.9608 12.197C21.0768 12.2574 21.1462 12.373 21.1462 12.5326C21.1462 12.6923 21.0768 12.8208 20.9608 12.8907ZM29.043 13.1284C29.2173 13.308 29.3108 13.5348 29.3108 13.9188C29.3108 14.7214 28.8072 15.096 27.9043 15.096H26.1606V14.296H27.8973C28.0671 14.296 28.1876 14.2736 28.263 14.2036C28.3246 14.1459 28.3688 14.0621 28.3688 13.9603C28.3688 13.8516 28.321 13.7653 28.2595 13.7136C28.1911 13.6567 28.0966 13.6308 27.9407 13.6308C27.1035 13.6023 26.0549 13.6567 26.0549 12.4761C26.0549 11.9349 26.3964 11.3654 27.335 11.3654H29.1298V12.1594H27.4875C27.3247 12.1594 27.2188 12.1655 27.1288 12.2268C27.0307 12.2872 26.9943 12.3768 26.9943 12.4952C26.9943 12.6359 27.0776 12.7317 27.1902 12.7731C27.2847 12.8058 27.3861 12.8154 27.5386 12.8154L28.0206 12.8283C28.5066 12.8401 28.8402 12.9238 29.043 13.1284ZM32.5957 12.1296H30.964C30.8011 12.1296 30.6928 12.1357 30.6017 12.197C30.5072 12.2574 30.4708 12.3471 30.4708 12.4655C30.4708 12.6062 30.5506 12.7019 30.6666 12.7433C30.7611 12.7761 30.8625 12.7856 31.0116 12.7856L31.4969 12.7986C31.9865 12.8106 32.3133 12.8944 32.5126 13.0988C32.5489 13.1273 32.5707 13.1592 32.5957 13.1912V12.1296Z" fill="white"/>
</svg>
