<svg width="32" height="20" viewBox="0 0 32 20" fill="none" xmlns="http://www.w3.org/2000/svg">
<path fill-rule="evenodd" clip-rule="evenodd" d="M2.79099 0C1.57882 0 0.595703 0.983234 0.595703 2.19577V17.8042C0.595703 19.017 1.5785 20 2.79099 20H29.5381C30.7503 20 31.7334 19.0168 31.7334 17.8042V2.19577C31.7334 0.982994 30.7506 0 29.5381 0L2.79099 0Z" fill="#4D4D4D"/>
<path fill-rule="evenodd" clip-rule="evenodd" d="M13.6556 6.46289C14.0084 6.46289 14.3043 6.53411 14.6644 6.706V7.61423C14.3233 7.30034 14.0274 7.16896 13.6362 7.16896C12.8671 7.16896 12.2624 7.76836 12.2624 8.52824C12.2624 9.32964 12.8484 9.89335 13.6743 9.89335C14.0461 9.89335 14.3364 9.7688 14.6644 9.45994V10.3686C14.2915 10.5339 13.9893 10.5992 13.6362 10.5992C12.3875 10.5992 11.4173 9.69718 11.4173 8.53387C11.4173 7.38313 12.4134 6.46289 13.6556 6.46289ZM9.77888 6.48792C10.2398 6.48792 10.6615 6.63642 11.0141 6.9268L10.5851 7.45566C10.3715 7.23028 10.1695 7.13519 9.92383 7.13519C9.57042 7.13519 9.31305 7.32461 9.31305 7.57387C9.31305 7.7876 9.45752 7.90073 9.94954 8.07215C10.8823 8.39327 11.1587 8.67798 11.1587 9.30672C11.1587 10.0729 10.5609 10.6062 9.70882 10.6062C9.08487 10.6062 8.63122 10.3749 8.25341 9.85287L8.78307 9.37263C8.97189 9.71634 9.28695 9.90045 9.67808 9.90045C10.0439 9.90045 10.3147 9.66285 10.3147 9.34221C10.3147 9.17598 10.2327 9.03347 10.0689 8.93271C9.98639 8.88501 9.82303 8.81387 9.50199 8.70728C8.73189 8.44628 8.46766 8.16728 8.46766 7.62205C8.46766 6.97435 9.03509 6.48792 9.77888 6.48792ZM19.1491 6.5569H20.0447L21.1659 9.21527L22.3014 6.5569H23.1903L21.3742 10.6162H20.933L19.1491 6.5569ZM3.28687 6.56297H4.49046C5.82028 6.56297 6.7473 7.37662 6.7473 8.54465C6.7473 9.12708 6.46371 9.6902 5.98411 10.0639C5.5806 10.3793 5.1208 10.5208 4.48415 10.5208H3.28687V6.56297ZM7.12459 6.56297H7.94455V10.5208H7.12459V6.56297ZM23.5611 6.56297H25.8865V7.23363H24.3805V8.11207H25.8311V8.78237H24.3805V9.85071H25.8865V10.5208H23.5611L23.5611 6.56297ZM26.4297 6.56297H27.6454C28.5911 6.56297 29.1331 6.99051 29.1331 7.73151C29.1331 8.3375 28.7932 8.73511 28.1755 8.85347L29.4988 10.5208H28.4904L27.3555 8.93083H27.2486V10.5208H26.4297V6.56297ZM27.2486 7.18636V8.38497H27.4882C28.0119 8.38497 28.2894 8.17091 28.2894 7.77307C28.2894 7.38792 28.0118 7.18636 27.5012 7.18636H27.2486ZM4.10627 7.23359V9.85071H4.32631C4.85617 9.85071 5.19082 9.75515 5.44846 9.53614C5.73201 9.29842 5.90259 8.91878 5.90259 8.53894C5.90259 8.15974 5.73201 7.79143 5.44846 7.55367C5.1776 7.32293 4.85617 7.23359 4.32631 7.23359H4.10627Z" fill="white"/>
<path fill-rule="evenodd" clip-rule="evenodd" d="M17.1678 6.43559C18.4029 6.43559 19.4042 7.3769 19.4042 8.53974V8.54106C19.4042 9.70393 18.4029 10.6465 17.1678 10.6465C15.9327 10.6465 14.9314 9.70389 14.9314 8.54106V8.53974C14.9314 7.37686 15.9327 6.43555 17.1678 6.43555L17.1678 6.43559ZM31.7326 11.5114C30.6927 12.2432 22.9071 17.4731 9.42725 19.9993H29.5374C30.7496 19.9993 31.7327 19.016 31.7327 17.8035V11.5113L31.7326 11.5114Z" fill="#F47216"/>
</svg>
