<svg width="30" height="20" viewBox="0 0 30 20" fill="none" xmlns="http://www.w3.org/2000/svg">
<rect x="0.734741" width="29.1667" height="20" rx="1.66667" fill="black"/>
<path fill-rule="evenodd" clip-rule="evenodd" d="M19.215 15.6715C22.3555 15.6715 24.9014 13.096 24.9014 9.91899C24.9014 6.74198 22.3555 4.1665 19.215 4.1665C17.8074 4.1665 16.5194 4.68382 15.5264 5.54074C14.5334 4.68386 13.2454 4.16659 11.8379 4.16659C8.69735 4.16659 6.15143 6.74206 6.15143 9.91907C6.15143 13.0961 8.69735 15.6716 11.8379 15.6716C13.2454 15.6716 14.5335 15.1542 15.5265 14.2973C16.5195 15.1542 17.8075 15.6715 19.215 15.6715Z" fill="#ED0006"/>
<path fill-rule="evenodd" clip-rule="evenodd" d="M15.5264 14.2973C16.7491 13.2422 17.5244 11.6722 17.5244 9.91899C17.5244 8.16581 16.7491 6.59581 15.5264 5.5407C16.5194 4.6838 17.8075 4.1665 19.215 4.1665C22.3555 4.1665 24.9014 6.74198 24.9014 9.91899C24.9014 13.096 22.3555 15.6715 19.215 15.6715C17.8075 15.6715 16.5194 15.1542 15.5264 14.2973Z" fill="#F9A000"/>
<path fill-rule="evenodd" clip-rule="evenodd" d="M15.5264 14.2971C16.7491 13.242 17.5244 11.672 17.5244 9.9188C17.5244 8.16563 16.7491 6.59564 15.5264 5.54053C14.3038 6.59564 13.5285 8.16563 13.5285 9.9188C13.5285 11.672 14.3038 13.242 15.5264 14.2971Z" fill="#FF5E00"/>
</svg>
