<svg width="32" height="20" viewBox="0 0 32 20" fill="none" xmlns="http://www.w3.org/2000/svg">
<path d="M31.7348 16.0005C31.7348 18.2096 29.9439 20.0005 27.7348 20.0005H4.96552C2.75638 20.0005 0.965515 18.2096 0.965515 16.0005V4.00049C0.965515 1.79135 2.75638 0.000488281 4.96552 0.000488281H27.7347C29.9439 0.000488281 31.7348 1.79135 31.7348 4.00049V16.0005Z" fill="#EEEEEE"/>
<path d="M31.7348 4.61523H0.965515V-0.000150681H31.7348V4.61523Z" fill="#265697"/>
<path d="M31.7348 20.0005H0.965515V15.3851H31.7348V20.0005Z" fill="#EB8518"/>
<path d="M20.1855 7.42966C19.8703 7.30889 19.3763 7.17966 18.76 7.17966C17.1885 7.17966 16.0816 7.98797 16.0726 9.14689C16.0635 10.0033 16.8625 10.481 17.4662 10.7665C18.0852 11.0589 18.2928 11.2451 18.2898 11.506C18.2865 11.9062 17.7955 12.0883 17.3388 12.0883C16.7017 12.0883 16.3637 11.9979 15.8412 11.7755L15.6366 11.6806L15.4139 13.0153C15.785 13.1818 16.4716 13.326 17.1852 13.3335C18.8565 13.3335 19.9421 12.5342 19.9542 11.2963C19.9602 10.618 19.5365 10.1021 18.6188 9.67666C18.063 9.40081 17.7231 9.21689 17.7264 8.93743C17.7264 8.68958 18.0149 8.42458 18.6369 8.42458C19.157 8.41643 19.5335 8.53243 19.827 8.65289L19.9695 8.72173L20.1855 7.42966Z" fill="#265697"/>
<path d="M22.3024 11.1317C22.4337 10.7879 22.9354 9.46522 22.9354 9.46522C22.9261 9.48084 23.0662 9.11999 23.147 8.89615L23.254 9.41022C23.254 9.41022 23.5587 10.833 23.6221 11.1317H22.3024ZM24.2633 7.28945H23.0346C22.6539 7.28945 22.3688 7.39522 22.2017 7.78376L19.8399 13.2471H21.5094C21.5094 13.2471 21.7828 12.5124 21.8444 12.3513C22.0274 12.3513 23.6491 12.354 23.8814 12.354C23.9283 12.5623 24.0743 13.2471 24.0743 13.2471H25.5505L24.2633 7.28945Z" fill="#265697"/>
<path d="M12.8273 13.2451L13.8219 7.28361H15.4127L14.4169 13.2451H12.8273Z" fill="#265697"/>
<path d="M11.4941 7.28749L9.9367 11.3533L9.77147 10.527C9.48116 9.5748 8.57853 8.54265 7.5686 8.02611L8.99262 13.2397L10.6753 13.2379L13.1786 7.28749H11.4941Z" fill="#265697"/>
<path d="M8.49258 7.28401H5.92827L5.90814 7.40755C7.90333 7.90124 9.22307 9.09386 9.77146 10.5269L9.21377 7.78701C9.11761 7.40962 8.83815 7.29693 8.49258 7.28401Z" fill="#D97B16"/>
</svg>
