<svg width="117" height="18" viewBox="0 0 117 18" fill="none" xmlns="http://www.w3.org/2000/svg">
<path d="M76.0669 0.312965L62.1043 17.6865C61.9659 17.8588 61.6717 18 61.4511 18H60.4958H54.9679H54.8709C54.6498 18 54.4225 17.8254 54.3652 17.6116L49.753 0.387804C49.6957 0.174625 49.8301 0 50.0512 0H55.676C55.8972 0 56.1245 0.174625 56.1818 0.387804L59.3154 12.0905L68.7803 0.312965C68.9186 0.140608 69.2129 0 69.434 0H75.9167C76.1378 0 76.2053 0.140608 76.0669 0.312965ZM32.0744 0.387804L24.3501 17.6116C24.2543 17.8254 23.9946 18 23.7724 18H18.1237C17.902 18 17.7988 17.8254 17.8946 17.6116L21.1587 10.3335L16.7068 15.1068C16.5419 15.2837 16.2255 15.4282 16.0038 15.4282H14.105H12.2919H11.2181C10.9958 15.4282 10.7877 15.257 10.7554 15.0472L9.95429 9.8907L6.49127 17.6116C6.39545 17.8254 6.13578 18 5.9141 18H0.265426C0.0431757 18 -0.0600112 17.8254 0.0358058 17.6116L7.76014 0.387804C7.85596 0.174625 8.11619 0 8.33788 0H13.9865C14.2082 0 14.4197 0.17009 14.4566 0.378733L15.967 9.0085L24.6738 0.310698C24.8451 0.139473 25.1665 0 25.3888 0H26.1961H31.8454C32.0671 0 32.1702 0.174625 32.0744 0.387804ZM51.493 18H45.8675C45.647 18 45.4191 17.8254 45.3618 17.6116L44.7966 15.4997H36.8148L38.9347 11.9998H43.8594L42.3495 6.36191L44.4127 2.95615L43.543 4.06854C43.5254 4.08555 43.4988 4.1156 43.4534 4.17456L32.9816 17.5362L32.8602 17.6865C32.7219 17.8588 32.4282 18 32.2071 18H26.5822C26.3611 18 26.2937 17.8588 26.432 17.6865L40.3946 0.312965C40.533 0.140608 40.8272 0 41.0478 0H46.6732C46.7288 0 46.7747 0.00907135 46.8098 0.0255127C46.9811 0.0782413 47.1336 0.218849 47.1784 0.387804L51.7906 17.6116C51.8479 17.8254 51.7135 18 51.493 18ZM107.321 8.72332C107.16 8.87527 106.849 9 106.627 9C106.849 9 107.141 9.14174 107.278 9.3158L113.853 17.6836C113.99 17.8577 113.92 18 113.699 18H107.431C107.21 18 106.918 17.8577 106.781 17.6836L100.437 9.61005L98.2937 17.6116C98.2364 17.8254 98.0085 18 97.7874 18H92.1625C91.9414 18 91.8076 17.8254 91.8648 17.6116L96.4799 0.387804C96.5372 0.174625 96.7645 0 96.9857 0H102.611C102.832 0 102.965 0.174625 102.909 0.387804L101.404 6.00359L97.9178 10.8364C97.7822 11.0116 97.8061 11.0331 97.9699 10.8852L109.212 0.230188C109.381 0.10092 109.645 0 109.843 0H116.111C116.332 0 116.382 0.124165 116.221 0.276112L107.321 8.72332ZM87.3218 5.76433C87.2798 5.92081 86.9714 7.07175 86.6913 8.11724C86.4441 9.04082 86.2184 9.8822 86.2184 9.8822C85.9384 10.9277 85.6299 12.0792 85.588 12.2351C85.3515 13.1173 84.344 14.0001 81.2581 14.0001C78.1726 14.0001 77.6374 13.1173 77.8738 12.2351C77.9158 12.0792 78.2242 10.9277 78.5043 9.8822C78.5043 9.8822 78.73 9.04082 78.9772 8.11724C79.2572 7.07175 79.5657 5.92081 79.6076 5.76433C79.844 4.88213 80.8521 3.99994 83.9375 3.99994C87.0235 3.99994 87.5582 4.88213 87.3218 5.76433ZM85.0097 0C81.6096 0 79.2533 0.308996 77.642 0.789782C77.5989 0.869158 77.5586 0.950233 77.4996 1.02337L73.8881 5.51657C73.7265 6.11982 73.5507 6.7758 73.3806 7.41136C72.935 9.07427 72.5296 10.5881 72.5296 10.5881C72.025 12.4698 71.47 14.5421 71.3946 14.8233C70.9688 16.4114 72.4718 18 80.1865 18C87.9006 18 90.2547 16.4114 90.6805 14.8233C90.7559 14.5421 91.3109 12.4698 91.8149 10.5881C91.8149 10.5881 92.2209 9.07427 92.6665 7.41136C93.1706 5.52961 93.7256 3.45735 93.801 3.17614C94.2268 1.58807 92.7238 0 85.0097 0Z" fill="white"/>
</svg>
