<svg width="29" height="20" viewBox="0 0 29 20" fill="none" xmlns="http://www.w3.org/2000/svg">
<rect x="0.172414" y="0.172414" width="28.6207" height="19.6552" rx="3.82759" fill="white" stroke="#E5E5E5" stroke-width="0.344828"/>
<path fill-rule="evenodd" clip-rule="evenodd" d="M13.9421 12.0589V9.80332V9.80288H15.1609C15.6633 9.80317 16.0856 9.6451 16.4277 9.32866C16.7734 9.02833 16.9667 8.59652 16.9569 8.14643C16.9637 7.69885 16.7708 7.27024 16.4277 6.97088C16.0886 6.6527 15.6325 6.4791 15.1609 6.48866H13.2045V12.0589H13.9421ZM13.9421 9.11888V7.17443V7.17399H15.1792C15.4549 7.16647 15.7207 7.2741 15.909 7.46954C16.0986 7.64829 16.2055 7.8938 16.2055 8.15021C16.2055 8.40663 16.0986 8.65214 15.909 8.83088C15.7184 9.02221 15.4534 9.12676 15.1792 9.11888H13.9421Z" fill="#5F6368"/>
<path fill-rule="evenodd" clip-rule="evenodd" d="M19.9478 8.54754C19.6323 8.26487 19.2019 8.12354 18.6567 8.12354C17.9563 8.12354 17.4274 8.37242 17.07 8.8702L17.7197 9.26709C17.9598 8.92991 18.2858 8.76131 18.6979 8.76131C18.9606 8.75833 19.2148 8.85148 19.4099 9.0222C19.6044 9.17818 19.7163 9.41074 19.7146 9.65554V9.81909C19.4311 9.66354 19.0704 9.58576 18.6324 9.58576C18.1192 9.58635 17.709 9.70309 17.4017 9.93598C17.0945 10.1689 16.9408 10.4825 16.9408 10.8769C16.9341 11.236 17.0947 11.5789 17.3779 11.8102C17.6693 12.0591 18.0314 12.1835 18.4642 12.1835C18.9713 12.1835 19.3775 11.9658 19.683 11.5302H19.715V12.0591H20.4206V9.7102C20.4209 9.21776 20.2633 8.8302 19.9478 8.54754ZM17.947 11.3591C17.7925 11.251 17.7013 11.0772 17.7023 10.8924C17.7023 10.6849 17.8027 10.512 18.0047 10.3698C18.2048 10.2296 18.4546 10.1595 18.7543 10.1595C19.1657 10.1595 19.4864 10.2484 19.7164 10.4262C19.7164 10.7266 19.5943 10.9884 19.3499 11.2115C19.1298 11.4251 18.8314 11.5453 18.5202 11.5458C18.3126 11.5495 18.1101 11.4836 17.947 11.3591Z" fill="#5F6368"/>
<path fill-rule="evenodd" clip-rule="evenodd" d="M24.4709 8.24805L22.0078 13.7392H21.2463L22.1603 11.8178L20.5407 8.24805H21.3425L22.5131 10.9858H22.5292L23.6677 8.24805H24.4709Z" fill="#5F6368"/>
<path fill-rule="evenodd" clip-rule="evenodd" d="M10.9612 9.31717C10.9615 9.0991 10.9425 8.88142 10.9044 8.6665H7.79346V9.89895H9.57528C9.5016 10.2967 9.2636 10.648 8.91643 10.8714V11.6714H9.97984C10.6025 11.1145 10.9612 10.2909 10.9612 9.31717Z" fill="#4285F4"/>
<path fill-rule="evenodd" clip-rule="evenodd" d="M7.79348 12.4445C8.6837 12.4445 9.43327 12.1609 9.97987 11.672L8.91645 10.872C8.62047 11.0667 8.23928 11.1778 7.79348 11.1778C6.93303 11.1778 6.20271 10.6152 5.94155 9.85693H4.84607V10.6814C5.40602 11.7622 6.54644 12.4444 7.79348 12.4445Z" fill="#34A853"/>
<path fill-rule="evenodd" clip-rule="evenodd" d="M5.94156 9.85695C5.8035 9.45964 5.8035 9.02938 5.94156 8.63206V7.80762H4.84608C4.37772 8.71167 4.37772 9.77734 4.84608 10.6814L5.94156 9.85695Z" fill="#FBBC04"/>
<path fill-rule="evenodd" clip-rule="evenodd" d="M7.79348 7.31131C8.26392 7.30386 8.71849 7.47628 9.05894 7.79131L10.0005 6.87798C9.40345 6.33401 8.61251 6.03536 7.79348 6.04464C6.54644 6.0447 5.40602 6.72689 4.84607 7.80776L5.94155 8.6322C6.20271 7.87398 6.93303 7.31131 7.79348 7.31131Z" fill="#EA4335"/>
</svg>
