<svg width="30" height="20" viewBox="0 0 30 20" fill="none" xmlns="http://www.w3.org/2000/svg">
<rect x="0.871327" y="0.172414" width="28.6207" height="19.6552" rx="3.82759" fill="white" stroke="#E5E5E5" stroke-width="0.344828"/>
<path fill-rule="evenodd" clip-rule="evenodd" d="M13.9025 10.1278L14.0286 9.32362L13.7477 9.31704H12.4063L13.3385 3.38228C13.3414 3.36431 13.3508 3.34763 13.3645 3.33576C13.3783 3.32389 13.3959 3.31738 13.4142 3.31738H15.676C16.427 3.31738 16.9451 3.47424 17.2156 3.78389C17.3425 3.92915 17.4233 4.08099 17.4624 4.24802C17.5034 4.42332 17.5041 4.63274 17.4641 4.8882L17.4612 4.90678V5.07049L17.588 5.14264C17.6948 5.19954 17.7797 5.26464 17.8448 5.33917C17.9533 5.46341 18.0235 5.62129 18.0531 5.80839C18.0838 6.00085 18.0736 6.22993 18.0235 6.48926C17.9656 6.78752 17.872 7.04732 17.7456 7.25985C17.6295 7.4557 17.4814 7.61819 17.3056 7.74406C17.1378 7.86368 16.9384 7.95449 16.7129 8.01261C16.4944 8.06971 16.2453 8.09853 15.9721 8.09853H15.7961C15.6703 8.09853 15.548 8.14403 15.4521 8.22562C15.3558 8.30889 15.2922 8.42269 15.2727 8.54713L15.2594 8.61956L15.0365 10.0371L15.0265 10.0891C15.0238 10.1056 15.0192 10.1138 15.0124 10.1194C15.0064 10.1245 14.9978 10.1278 14.9893 10.1278H13.9025Z" fill="#28356A"/>
<path fill-rule="evenodd" clip-rule="evenodd" d="M17.7082 4.92578C17.7015 4.96912 17.6937 5.0134 17.6851 5.0589C17.3868 6.59656 16.3663 7.12776 15.063 7.12776H14.3994C14.24 7.12776 14.1057 7.24393 14.0809 7.4018L13.6449 10.1785C13.6288 10.2822 13.7083 10.3756 13.8125 10.3756H14.9895C15.1288 10.3756 15.2472 10.2739 15.2692 10.1359L15.2807 10.0759L15.5023 8.66392L15.5166 8.58648C15.5382 8.448 15.6569 8.34627 15.7963 8.34627H15.9723C17.1126 8.34627 18.0053 7.88146 18.2662 6.53627C18.3752 5.97435 18.3188 5.50513 18.0304 5.17514C17.9431 5.07565 17.8348 4.99305 17.7082 4.92578Z" fill="#298FC2"/>
<path fill-rule="evenodd" clip-rule="evenodd" d="M17.3962 4.80085C17.3506 4.78749 17.3036 4.77542 17.2554 4.7645C17.2069 4.75385 17.1572 4.74442 17.1061 4.73615C16.9272 4.70713 16.7311 4.69336 16.5211 4.69336H14.7483C14.7046 4.69336 14.6632 4.70326 14.6261 4.72116C14.5443 4.76063 14.4836 4.83835 14.4688 4.93349L14.0917 7.33187L14.0809 7.40178C14.1057 7.24391 14.24 7.12774 14.3994 7.12774H15.063C16.3663 7.12774 17.3868 6.59627 17.6851 5.05889C17.694 5.01338 17.7015 4.9691 17.7082 4.92576C17.6327 4.88555 17.551 4.85117 17.463 4.82187C17.4412 4.81461 17.4188 4.80763 17.3962 4.80085Z" fill="#22284F"/>
<path fill-rule="evenodd" clip-rule="evenodd" d="M14.4688 4.93381C14.4835 4.83866 14.5442 4.76095 14.626 4.72175C14.6634 4.70378 14.7046 4.69388 14.7483 4.69388H16.5211C16.7311 4.69388 16.9271 4.70771 17.1061 4.73674C17.1572 4.74494 17.2068 4.75444 17.2553 4.76508C17.3035 4.77593 17.3506 4.78807 17.3961 4.80136C17.4188 4.80815 17.4412 4.8152 17.4631 4.82218C17.5512 4.85148 17.6329 4.88613 17.7084 4.92608C17.7971 4.35785 17.7076 3.97096 17.4017 3.62062C17.0643 3.23489 16.4555 3.06982 15.6764 3.06982H13.4145C13.2554 3.06982 13.1196 3.18599 13.0951 3.34414L12.153 9.33993C12.1344 9.45854 12.2255 9.56556 12.3447 9.56556H13.741L14.4688 4.93381Z" fill="#28356A"/>
<path fill-rule="evenodd" clip-rule="evenodd" d="M7.23843 11.7603H5.58933C5.47646 11.7603 5.38048 11.8426 5.36286 11.9545L4.69588 16.2003C4.68264 16.2841 4.74728 16.3596 4.83191 16.3596H5.61918C5.73204 16.3596 5.82802 16.2773 5.84565 16.1652L6.02551 15.02C6.04287 14.9079 6.13905 14.8256 6.25171 14.8256H6.77374C7.86002 14.8256 8.48695 14.2978 8.65074 13.2519C8.7245 12.7943 8.65385 12.4348 8.44041 12.183C8.20604 11.9065 7.79032 11.7603 7.23843 11.7603ZM7.42859 13.311C7.33842 13.9051 6.88629 13.9051 6.44916 13.9051H6.20027L6.37486 12.7955C6.38527 12.7285 6.44308 12.6791 6.51062 12.6791H6.6247C6.9225 12.6791 7.2034 12.6791 7.34855 12.8495C7.43514 12.9512 7.46162 13.1023 7.42859 13.311Z" fill="#28356A"/>
<path fill-rule="evenodd" clip-rule="evenodd" d="M12.21 13.2601H11.4203C11.353 13.2601 11.2948 13.3095 11.2845 13.3766L11.2495 13.5983L11.1943 13.518C11.0234 13.2688 10.6421 13.1855 10.2617 13.1855C9.38894 13.1855 8.64362 13.8492 8.49847 14.7801C8.42302 15.2444 8.53028 15.6885 8.79268 15.9981C9.03333 16.2828 9.37766 16.4015 9.78731 16.4015C10.4905 16.4015 10.8803 15.9475 10.8803 15.9475L10.8452 16.1679C10.8319 16.2521 10.8966 16.3277 10.9807 16.3277H11.692C11.8051 16.3277 11.9006 16.2453 11.9185 16.1332L12.3453 13.4194C12.3588 13.3359 12.2943 13.2601 12.21 13.2601ZM11.1092 14.8034C11.033 15.2563 10.6749 15.5604 10.2182 15.5604C9.98891 15.5604 9.80567 15.4865 9.68794 15.3466C9.57123 15.2077 9.52692 15.0099 9.564 14.7895C9.63519 14.3405 9.99925 14.0264 10.449 14.0264C10.6732 14.0264 10.8555 14.1013 10.9756 14.2423C11.0959 14.3849 11.1437 14.584 11.1092 14.8034Z" fill="#28356A"/>
<path fill-rule="evenodd" clip-rule="evenodd" d="M16.3551 13.3276H15.5615C15.4858 13.3276 15.4146 13.3654 15.3717 13.4286L14.2772 15.0473L13.8133 13.4918C13.7841 13.3944 13.6947 13.3276 13.5934 13.3276H12.8136C12.7188 13.3276 12.653 13.4206 12.6831 13.5102L13.5572 16.0857L12.7354 17.2505C12.6708 17.3423 12.7359 17.4684 12.8476 17.4684H13.6402C13.7154 17.4684 13.7858 17.4316 13.8285 17.3697L16.4679 13.5443C16.5311 13.4528 16.4662 13.3276 16.3551 13.3276Z" fill="#28356A"/>
<path fill-rule="evenodd" clip-rule="evenodd" d="M19.0006 11.7603H17.3513C17.2387 11.7603 17.1428 11.8426 17.1251 11.9545L16.4581 16.2003C16.4449 16.2841 16.5095 16.3596 16.5937 16.3596H17.4401C17.5186 16.3596 17.5859 16.302 17.5982 16.2235L17.7875 15.02C17.8049 14.9079 17.9011 14.8256 18.0137 14.8256H18.5355C19.622 14.8256 20.2487 14.2978 20.4127 13.2519C20.4868 12.7943 20.4156 12.4348 20.2022 12.183C19.968 11.9065 19.5526 11.7603 19.0006 11.7603ZM19.1909 13.311C19.101 13.9051 18.6488 13.9051 18.2114 13.9051H17.9629L18.1377 12.7955C18.148 12.7285 18.2054 12.6791 18.2732 12.6791H18.3872C18.6848 12.6791 18.9659 12.6791 19.1111 12.8495C19.1977 12.9512 19.224 13.1023 19.1909 13.311Z" fill="#298FC2"/>
<path fill-rule="evenodd" clip-rule="evenodd" d="M23.9712 13.2601H23.182C23.1142 13.2601 23.0566 13.3095 23.0465 13.3766L23.0115 13.5983L22.956 13.518C22.7851 13.2688 22.4041 13.1855 22.0235 13.1855C21.1509 13.1855 20.4058 13.8492 20.2607 14.7801C20.1854 15.2444 20.2922 15.6885 20.5546 15.9981C20.7958 16.2828 21.1395 16.4015 21.5493 16.4015C22.2524 16.4015 22.6423 15.9475 22.6423 15.9475L22.6071 16.1679C22.5939 16.2521 22.6584 16.3277 22.7431 16.3277H23.4542C23.5668 16.3277 23.6628 16.2453 23.6804 16.1332L24.1074 13.4194C24.1204 13.3359 24.0558 13.2601 23.9712 13.2601ZM22.8704 14.8034C22.7947 15.2563 22.4361 15.5604 21.9794 15.5604C21.7506 15.5604 21.5668 15.4865 21.4491 15.3466C21.3325 15.2077 21.2886 15.0099 21.3252 14.7895C21.3968 14.3405 21.7604 14.0264 22.2102 14.0264C22.4344 14.0264 22.6167 14.1013 22.7368 14.2423C22.8576 14.3849 22.9053 14.584 22.8704 14.8034Z" fill="#298FC2"/>
<path fill-rule="evenodd" clip-rule="evenodd" d="M24.8364 11.877L24.1596 16.2005C24.1463 16.2843 24.2109 16.3598 24.2951 16.3598H24.9755C25.0887 16.3598 25.1846 16.2775 25.2019 16.1654L25.8694 11.9198C25.8827 11.836 25.8181 11.7603 25.7339 11.7603H24.972C24.9047 11.7605 24.8468 11.8099 24.8364 11.877Z" fill="#298FC2"/>
</svg>
