<svg width="30" height="20" viewBox="0 0 30 20" fill="none" xmlns="http://www.w3.org/2000/svg">
<rect x="0.905812" y="0.172414" width="28.6207" height="19.6552" rx="3.82759" fill="white" stroke="#E5E5E5" stroke-width="0.344828"/>
<path fill-rule="evenodd" clip-rule="evenodd" d="M9.51153 7.46327C9.30084 7.71564 8.96374 7.91469 8.62664 7.88626C8.58451 7.54502 8.74954 7.18246 8.94267 6.95853C9.15336 6.69905 9.52206 6.51422 9.82054 6.5C9.85565 6.85545 9.7187 7.20379 9.51153 7.46327ZM9.81702 7.95381C9.52004 7.93651 9.24906 8.04422 9.03018 8.13122C8.88933 8.18721 8.77005 8.23462 8.67931 8.23462C8.57748 8.23462 8.45327 8.18467 8.31382 8.12859C8.1311 8.05511 7.9222 7.97111 7.70313 7.97514C7.20099 7.98225 6.73397 8.27016 6.47763 8.72869C5.95092 9.64575 6.34069 11.0036 6.84985 11.75C7.09916 12.1197 7.39763 12.5249 7.79091 12.5107C7.96393 12.5041 8.08839 12.4506 8.2172 12.3953C8.36549 12.3316 8.51954 12.2654 8.76007 12.2654C8.99227 12.2654 9.13958 12.3299 9.28099 12.3917C9.41545 12.4506 9.54457 12.507 9.73625 12.5036C10.1436 12.4965 10.3999 12.1339 10.6492 11.7642C10.9183 11.3675 11.0365 10.9803 11.0545 10.9215L11.0566 10.9147C11.0561 10.9143 11.0528 10.9127 11.0469 10.91C10.957 10.8683 10.2696 10.5498 10.263 9.69552C10.2564 8.97849 10.8082 8.61521 10.8951 8.55802C10.9004 8.55454 10.904 8.55219 10.9056 8.55097C10.5544 8.0249 10.0066 7.96803 9.81702 7.95381ZM12.6367 12.4644V6.92295H14.6909C15.7513 6.92295 16.4923 7.66229 16.4923 8.74286C16.4923 9.82343 15.7373 10.5699 14.6628 10.5699H13.4865V12.4644H12.6367ZM13.4865 7.64813H14.4662C15.2036 7.64813 15.6249 8.04624 15.6249 8.74648C15.6249 9.44671 15.2036 9.84837 14.4627 9.84837H13.4865V7.64813ZM19.2979 11.7998C19.0732 12.2334 18.5781 12.5071 18.0443 12.5071C17.2543 12.5071 16.703 12.0308 16.703 11.3128C16.703 10.6019 17.2367 10.1931 18.2234 10.1327L19.2839 10.0687V9.76303C19.2839 9.31161 18.9924 9.06635 18.4727 9.06635C18.0443 9.06635 17.7318 9.29028 17.6686 9.63152H16.9031C16.9277 8.91351 17.5949 8.391 18.4973 8.391C19.47 8.391 20.102 8.9064 20.102 9.70616V12.4645H19.3155V11.7998H19.2979ZM18.2726 11.8495C17.8196 11.8495 17.5317 11.6292 17.5317 11.2915C17.5317 10.9431 17.8091 10.7405 18.3393 10.7085L19.2839 10.6481V10.9609C19.2839 11.4799 18.8484 11.8495 18.2726 11.8495ZM22.711 12.6813C22.3704 13.6516 21.9807 13.9715 21.152 13.9715C21.0887 13.9715 20.8781 13.9644 20.8289 13.9502V13.2855C20.8816 13.2926 21.0115 13.2997 21.0782 13.2997C21.4539 13.2997 21.6646 13.1398 21.7945 12.7239L21.8718 12.4786L20.4321 8.44429H21.3205L22.3213 11.718H22.3388L23.3396 8.44429H24.2034L22.711 12.6813Z" fill="black"/>
</svg>
